<svg xmlns="http://www.w3.org/2000/svg" width="26" height="26" viewBox="0 0 26 26"><defs><style>.a{fill:#db4437;}.b{fill:#fff;}</style></defs><g transform="translate(-1 -1.035)"><rect class="a" width="26" height="26" rx="2" transform="translate(1 1.035)"/><g transform="translate(7.166 7.166)"><path class="b" d="M6.555,1.4A5.851,5.851,0,0,0,6.411,0H0V2.534H3.763a3.337,3.337,0,0,1-1.4,2.215l-.013.085L4.381,6.4l.14.014A6.676,6.676,0,0,0,6.555,1.4" transform="translate(6.828 5.584)"/><path class="b" d="M6.1,5.477a6.508,6.508,0,0,0,4.522-1.654L8.467,2.155A4.041,4.041,0,0,1,6.1,2.837,4.11,4.11,0,0,1,2.215,0l-.08.007L.028,1.638,0,1.715A6.823,6.823,0,0,0,6.1,5.477" transform="translate(0.728 8.178)"/><path class="b" d="M2.944,4.449A4.2,4.2,0,0,1,2.716,3.1a4.417,4.417,0,0,1,.22-1.35l0-.09L.8,0,.728.033a6.814,6.814,0,0,0,0,6.13L2.944,4.449" transform="translate(0 3.73)"/><path class="b" d="M6.1,2.64A3.784,3.784,0,0,1,8.74,3.657l1.927-1.881A6.56,6.56,0,0,0,6.1,0,6.823,6.823,0,0,0,0,3.763L2.208,5.477A4.127,4.127,0,0,1,6.1,2.64" transform="translate(0.728)"/></g></g></svg>