<svg xmlns="http://www.w3.org/2000/svg" xmlns:xlink="http://www.w3.org/1999/xlink" width="74" height="74" viewBox="0 0 74 74"><defs><style>.a{fill:#ff6e6e;}.b{fill:#fff;}.c{opacity:0.12;}.d{fill:url(#c);}.e{fill:url(#d);}.f{filter:url(#a);}</style><filter id="a" x="0" y="0" width="74" height="74" filterUnits="userSpaceOnUse"><feOffset dy="6" input="SourceAlpha"/><feGaussianBlur stdDeviation="3" result="b"/><feFlood flood-opacity="0.239"/><feComposite operator="in" in2="b"/><feComposite in="SourceGraphic"/></filter><linearGradient id="c" x1="0.5" y1="1" x2="0.5" gradientUnits="objectBoundingBox"><stop offset="0"/><stop offset="0.14" stop-opacity="0.631"/><stop offset="1" stop-opacity="0"/></linearGradient><linearGradient id="d" x1="0.5" y1="1" x2="0.5" gradientUnits="objectBoundingBox"><stop offset="0" stop-color="#fff" stop-opacity="0"/><stop offset="0.23" stop-color="#fff" stop-opacity="0.012"/><stop offset="0.36" stop-color="#fff" stop-opacity="0.039"/><stop offset="0.47" stop-color="#fff" stop-opacity="0.102"/><stop offset="0.57" stop-color="#fff" stop-opacity="0.18"/><stop offset="0.67" stop-color="#fff" stop-opacity="0.278"/><stop offset="0.75" stop-color="#fff" stop-opacity="0.412"/><stop offset="0.83" stop-color="#fff" stop-opacity="0.561"/><stop offset="0.91" stop-color="#fff" stop-opacity="0.741"/><stop offset="0.98" stop-color="#fff" stop-opacity="0.929"/><stop offset="1" stop-color="#fff"/></linearGradient></defs><g transform="translate(-208 -517)"><g class="f" transform="matrix(1, 0, 0, 1, 208, 517)"><path class="a" d="M28,0A28,28,0,1,1,0,28,28,28,0,0,1,28,0Z" transform="translate(9 3)"/></g><g transform="translate(97 469)"><path class="b" d="M3438,988h-6v6h-2v-6h-6v-2h6v-6h2v6h6Z" transform="translate(-3283 -908)"/></g><g class="c" transform="translate(-2753 918)"><path class="d" d="M3431,959.5a27.5,27.5,0,1,1-27.5,27.5,27.5,27.5,0,0,1,27.5-27.5m0-.5a28,28,0,1,0,28,28,28,28,0,0,0-28-28Z" transform="translate(-433 -1357)"/><path class="e" d="M3431,959.5a27.5,27.5,0,1,1-27.5,27.5,27.5,27.5,0,0,1,27.5-27.5m0-.5a28,28,0,1,0,28,28,28,28,0,0,0-28-28Z" transform="translate(-433 -1357)"/></g></g></svg>